<?xml version="1.0" standalone="no"?>
<!DOCTYPE svg PUBLIC "-//W3C//DTD SVG 20010904//EN"
 "http://www.w3.org/TR/2001/REC-SVG-20010904/DTD/svg10.dtd">
<svg version="1.0" xmlns="http://www.w3.org/2000/svg"
 width="78.000000pt" height="74.000000pt" viewBox="0 0 78.000000 74.000000"
 preserveAspectRatio="xMidYMid meet">

<g transform="translate(0.000000,74.000000) scale(0.100000,-0.100000)"
fill="#0000FF" stroke="none">
<path d="M333 674 c-7 -3 -10 -11 -7 -19 3 -7 -2 -25 -11 -39 -20 -30 -14 -52
18 -67 35 -16 75 4 92 46 8 19 24 39 36 45 59 32 144 -45 99 -90 -15 -15 -34
-20 -74 -20 -31 0 -58 -5 -63 -12 -21 -27 -21 -47 -2 -72 17 -22 28 -26 73
-26 58 0 99 -23 111 -61 7 -20 7 -20 21 -2 13 17 15 17 30 -2 24 -30 13 -98
-23 -143 -58 -72 -136 -106 -191 -83 -23 10 -30 22 -44 84 -22 90 -22 121 -2
141 14 15 13 17 -11 26 -35 13 -39 13 -58 -8 -21 -23 -21 -49 -1 -97 19 -46
11 -82 -21 -97 -35 -16 -73 -2 -95 35 -27 43 -26 51 15 96 43 48 47 92 11 116
-27 18 -48 12 -80 -24 -11 -12 -25 -21 -32 -21 -30 0 -28 86 2 111 12 10 21
10 42 -3 33 -19 64 -10 87 26 16 25 13 66 -5 66 -5 0 -18 9 -28 20 -19 20 -19
20 -59 -23 -171 -185 -55 -484 199 -513 90 -10 183 22 252 90 63 61 85 107 93
192 12 128 -62 253 -179 304 -51 22 -168 36 -195 24z"/>
</g>
</svg>
